<?xml version="1.0" encoding="utf-8"?>
<!-- Generator: Adobe Illustrator 21.1.0, SVG Export Plug-In . SVG Version: 6.00 Build 0)  -->
<svg version="1.1" id="Livello_1" xmlns="http://www.w3.org/2000/svg" xmlns:xlink="http://www.w3.org/1999/xlink" x="0px" y="0px"
	 viewBox="0 0 503 353" enable-background="new 0 0 503 353" xml:space="preserve">
<g>
	<path fill="#FEFEFE" d="M251.5,353c80.8,0,161.6,0,242.4,0c7.7,0,9-1.3,9-8.9c0-111.6,0-223.3,0-334.9c0-7.9-1.3-9.1-9.3-9.1
		C332.2,0,170.7,0,9.3,0C1.2,0,0,1.2,0,9.2c0,111.5,0,222.9,0,334.4c0,8.3,1.2,9.4,9.6,9.4C90.2,353,170.9,353,251.5,353z"/>
	<path fill="#0A5DD7" d="M251.5,353c-80.6,0-161.3,0-241.9,0c-8.4,0-9.6-1.1-9.6-9.4C0,232.1,0,120.7,0,9.2C0,1.2,1.2,0,9.3,0
		c161.5,0,322.9,0,484.4,0c8.1,0,9.3,1.2,9.3,9.1c0,111.6,0,223.3,0,334.9c0,7.6-1.3,8.9-9,8.9C413.2,353,332.3,353,251.5,353z
		 M497.7,112c0.5-7.9-0.3-19.7-0.1-31.6c0.4-23.6-0.4-47.2-0.2-70.9c0-3.7-1.1-4-3.8-4c-13.7,0.1-27.3,0.1-41,0
		c-17.2,0-34.4-0.1-51.6-0.1c-18.4,0-36.8,0.2-55.2,0.2c-21.2-0.1-42.4-0.4-63.7-0.4c-27.4,0-54.8,0.2-82.2,0.2
		c-26.6,0-53.2-0.1-79.9-0.1c-12.5,0-25,0.3-37.6,0.3c-24.7,0-49.3,0-74-0.1c-2.1,0-2.8,0.5-2.8,2.7c0,8.1-0.6,16.2-0.4,24.2
		c0.7,18,0,35.9,0.1,53.9c0.1,17.5-0.2,35-0.1,52.5c0,20.6,0.3,41.3,0.3,61.9c0,18-0.2,36.1-0.3,54.1c0,16.5,0,33.1,0,49.6
		c0,13.3,0.1,26.6,0,39.8c0,2.5,0.7,3.2,3.5,3.1c8.8-0.2,17.7,0.1,26.5,0.1c24,0,47.9-0.2,71.9-0.3c15.9,0,31.8,0.2,47.7,0.2
		c19.4,0,38.8,0,58.1,0c13,0,26,0.3,39,0.2c17.3,0,34.5-0.3,51.8-0.4c20.7,0,41.4,0.1,62,0.1c21.1,0,42.2-0.2,63.4-0.1
		c21.4,0,42.9,0.2,64.3,0.3c2.5,0,4-0.6,4-3.7c-0.1-9.7,0.1-19.4,0-29.1c-0.1-19.1-0.3-38.1-0.3-57.2c0-17.6,0.4-35.2,0.4-52.7
		C497.8,175.3,497.7,145.6,497.7,112z"/>
	<path fill="#FEFEFE" d="M497.7,112c0,33.6,0.1,63.3,0,93c0,17.6-0.4,35.2-0.4,52.7c0,19.1,0.2,38.1,0.3,57.2c0,9.7-0.2,19.4,0,29.1
		c0,3.1-1.5,3.7-4,3.7c-21.4-0.1-42.9-0.3-64.3-0.3c-21.1,0-42.2,0.1-63.4,0.1c-20.7,0-41.4-0.1-62-0.1c-17.3,0-34.5,0.3-51.8,0.4
		c-13,0-26-0.2-39-0.2c-19.4,0-38.8,0-58.1,0c-15.9,0-31.8-0.2-47.7-0.2c-24,0-47.9,0.2-71.9,0.3c-8.8,0-17.7-0.4-26.5-0.1
		c-2.8,0.1-3.5-0.6-3.5-3.1c0-13.3,0-26.6,0-39.8c0-16.5,0-33.1,0-49.6c0.1-18,0.3-36.1,0.3-54.1c0-20.6-0.3-41.3-0.3-61.9
		c0-17.5,0.2-35,0.1-52.5C5.4,68.4,6,50.5,5.4,32.5C5.1,24.5,5.7,16.4,5.7,8.3c0-2.2,0.7-2.7,2.8-2.7c24.7,0.1,49.3,0.1,74,0.1
		c12.5,0,25-0.3,37.6-0.3c26.6,0,53.2,0.1,79.9,0.1c27.4,0,54.8-0.2,82.2-0.2c21.2,0,42.4,0.3,63.7,0.4c18.4,0,36.8-0.2,55.2-0.2
		c17.2,0,34.4,0.1,51.6,0.1c13.7,0,27.3,0,41,0c2.8,0,3.9,0.2,3.8,4c-0.2,23.6,0.5,47.3,0.2,70.9C497.4,92.3,498.2,104.1,497.7,112z
		 M124.6,120.3c0.5,4.7,2.3,8.7,6.2,11.4c19.6,13.5,39.1,27.1,58.7,40.6c3,2.1,6.3,3,10,2.3c5.9-1.1,10-4.5,11.6-10.3
		c1.7-6.1-0.4-11.6-6.1-15.6c-17.6-12.3-35.3-24.4-52.9-36.7c-5.5-3.8-10.8-7.7-18.3-5.1c13-32.9-3.7-59-23.8-69
		c-22.5-11.1-50.5-4.3-65.1,16.1c-14.7,20.6-12.4,49.1,5.4,66.8C70.5,140.8,97,140.7,124.6,120.3z"/>
	<path fill="#606060" d="M124.6,120.3c-27.6,20.5-54.2,20.6-74.4,0.4C32.4,103,30.1,74.5,44.9,53.9C59.5,33.5,87.5,26.7,110,37.9
		c20.1,9.9,36.8,36,23.8,69c7.6-2.7,12.9,1.2,18.3,5.1c17.6,12.3,35.3,24.4,52.9,36.7c5.7,4,7.8,9.5,6.1,15.6
		c-1.6,5.9-5.6,9.2-11.6,10.3c-3.6,0.7-7-0.2-10-2.3c-19.6-13.5-39.2-27-58.7-40.6C126.9,128.9,125.1,125,124.6,120.3z M86.4,120.3
		c19.6,0.3,36.3-15.5,36.6-34.7C123.3,65,107.7,48.3,87.8,48c-20.4-0.3-36.9,15.5-37.1,35.7C50.5,103.8,66.3,120,86.4,120.3z"/>
	<path fill="#FEFEFE" d="M86.4,120.3c-20.1-0.3-35.9-16.4-35.7-36.6c0.2-20.2,16.7-36,37.1-35.7c19.9,0.3,35.5,17,35.2,37.6
		C122.7,104.8,106,120.5,86.4,120.3z"/>
</g>
</svg>
